<svg width="44" height="44" viewBox="0 0 44 44" fill="none" xmlns="http://www.w3.org/2000/svg">
<defs>
  <linearGradient id="gradNeutral" x1="0" y1="0" x2="44" y2="44" gradientUnits="userSpaceOnUse">
    <stop offset="0%" stop-color="#F3F4F6"/>  <!-- soft light gray -->
    <stop offset="50%" stop-color="#9CA3AF"/> <!-- mid neutral -->
    <stop offset="100%" stop-color="#111827"/> <!-- deep dark -->
  </linearGradient>
</defs>

<g transform="translate(0 -0.5)">
<path fill-rule="evenodd" clip-rule="evenodd"
d="M16.3703 21.5519C14.7684 20.1359 12.5357 19.621 10.0254 19.621V13.3584C13.2227 13.3584 17.2684 13.9871 20.5181 16.8598C21.3832 17.6245 22.1502 18.5106 22.8115 19.5238V13.3584C26.0088 13.3584 30.0545 13.9871 33.3042 16.8598C36.6243 19.7947 38.4997 24.5159 38.4997 31.357H32.237C32.237 25.618 30.6878 22.9056 29.1564 21.5519C27.568 20.1478 25.3592 19.6297 22.8745 19.6211C24.7111 22.4869 25.7135 26.3554 25.7135 31.357H19.4509C19.4509 25.618 17.9016 22.9056 16.3703 21.5519ZM10.1221 23.3457C10.0776 23.3181 10.0425 23.2964 10.0227 23.2839C10.003 23.2964 9.96784 23.3181 9.92334 23.3457C9.76083 23.4465 9.4732 23.6249 9.35071 23.7109C9.03912 23.9296 8.62274 24.2478 8.20525 24.6452C7.38211 25.4288 6.5 26.5724 6.5 27.9046C6.5 29.8128 8.07718 31.3598 10.0227 31.3598C11.9683 31.3598 13.5455 29.8128 13.5455 27.9046C13.5455 26.5724 12.6633 25.4288 11.8402 24.6452C11.4227 24.2478 11.0064 23.9296 10.6948 23.7109C10.5723 23.6249 10.2846 23.4465 10.1221 23.3457Z"
fill="url(#gradNeutral)"/>
</g>
</svg>